<svg width="1188" height="188" viewBox="0 0 1188 188" fill="none" xmlns="http://www.w3.org/2000/svg">
    <g filter="url(#filter0_d)">
        <rect x="404" y="3" width="180" height="50" fill="white"/>
    </g>
    <g filter="url(#filter1_d)">
        <rect x="604" y="3" width="180" height="50" fill="white"/>
    </g>
    <g filter="url(#filter2_d)">
        <rect x="804" y="3" width="180" height="50" fill="white"/>
    </g>
    <g filter="url(#filter3_d)">
        <rect x="804" y="133" width="180" height="50" fill="white"/>
    </g>
    <g filter="url(#filter4_d)">
        <rect x="604" y="133" width="180" height="50" fill="white"/>
    </g>
    <g filter="url(#filter5_d)">
        <rect x="404" y="133" width="180" height="50" fill="white"/>
    </g>
    <g filter="url(#filter6_d)">
        <rect x="204" y="133" width="180" height="50" fill="white"/>
    </g>
    <g filter="url(#filter7_d)">
        <rect x="4" y="133" width="180" height="50" fill="white"/>
    </g>
    <path d="M204 28L184 28" stroke="#555555" stroke-width="0.5"/>
    <path d="M404 28L384 28" stroke="#555555" stroke-width="0.5"/>
    <path d="M604 28L584 28" stroke="#555555" stroke-width="0.5"/>
    <path d="M804 28L784 28" stroke="#555555" stroke-width="0.5"/>
    <path d="M1004 28L984 28" stroke="#555555" stroke-width="0.5"/>
    <path d="M194 24L197.768 27.7677L194 31.5354" stroke="#555555" stroke-width="0.5"/>
    <path d="M394 24L397.768 27.7677L394 31.5354" stroke="#555555" stroke-width="0.5"/>
    <path d="M594 24L597.768 27.7677L594 31.5354" stroke="#555555" stroke-width="0.5"/>
    <path d="M794 24L797.768 27.7677L794 31.5354" stroke="#555555" stroke-width="0.5"/>
    <path d="M994 24L997.768 27.7677L994 31.5354" stroke="#555555" stroke-width="0.5"/>
    <g filter="url(#filter8_d)">
        <rect x="1004" y="3" width="180" height="50" fill="white"/>
    </g>
    <g filter="url(#filter9_d)">
        <rect x="1004" y="133" width="180" height="50" fill="white"/>
    </g>
    <path d="M850.773 154C850.341 151.614 848.432 150.205 846.091 150.205C843.114 150.205 840.955 152.5 840.955 156.182C840.955 159.864 843.114 162.159 846.091 162.159C848.432 162.159 850.341 160.75 850.773 158.364H849.364C849.023 159.977 847.636 160.841 846.091 160.841C843.977 160.841 842.318 159.205 842.318 156.182C842.318 153.159 843.977 151.523 846.091 151.523C847.636 151.523 849.023 152.386 849.364 154H850.773ZM856.413 162.182C858.777 162.182 860.368 160.386 860.368 157.682C860.368 154.955 858.777 153.159 856.413 153.159C854.05 153.159 852.459 154.955 852.459 157.682C852.459 160.386 854.05 162.182 856.413 162.182ZM856.413 160.977C854.618 160.977 853.8 159.432 853.8 157.682C853.8 155.932 854.618 154.364 856.413 154.364C858.209 154.364 859.027 155.932 859.027 157.682C859.027 159.432 858.209 160.977 856.413 160.977ZM863.756 156.75C863.756 155.227 864.699 154.364 865.983 154.364C867.227 154.364 867.983 155.176 867.983 156.545V162H869.324V156.455C869.324 154.227 868.136 153.159 866.369 153.159C865.051 153.159 864.233 153.75 863.824 154.636H863.71V153.273H862.415V162H863.756V156.75ZM875.661 153.273H873.706V152.386C873.706 151.523 874.07 151.068 874.956 151.068C875.342 151.068 875.57 151.159 875.706 151.205L876.092 150.045C875.888 149.955 875.479 149.818 874.82 149.818C873.57 149.818 872.365 150.568 872.365 152.068V153.273H870.956V154.409H872.365V162H873.706V154.409H875.661V153.273ZM877.54 162H878.881V153.273H877.54V162ZM878.222 151.818C878.744 151.818 879.176 151.409 879.176 150.909C879.176 150.409 878.744 150 878.222 150C877.699 150 877.267 150.409 877.267 150.909C877.267 151.409 877.699 151.818 878.222 151.818ZM881.337 162H882.678V156.477C882.678 155.295 883.609 154.432 884.882 154.432C885.24 154.432 885.609 154.5 885.7 154.523V153.159C885.547 153.148 885.195 153.136 884.996 153.136C883.95 153.136 883.041 153.727 882.723 154.591H882.632V153.273H881.337V162ZM887.29 162H888.631V156.545C888.631 155.267 889.562 154.364 890.608 154.364C891.625 154.364 892.335 155.028 892.335 156.023V162H893.699V156.318C893.699 155.193 894.403 154.364 895.631 154.364C896.585 154.364 897.403 154.869 897.403 156.159V162H898.744V156.159C898.744 154.108 897.642 153.159 896.085 153.159C894.835 153.159 893.92 153.733 893.472 154.636H893.381C892.949 153.705 892.188 153.159 891.04 153.159C889.903 153.159 889.062 153.705 888.699 154.636H888.585V153.273H887.29V162ZM903.764 162.205C905.287 162.205 906.082 161.386 906.355 160.818H906.423V162H907.764V156.25C907.764 153.477 905.651 153.159 904.537 153.159C903.219 153.159 901.719 153.614 901.037 155.205L902.31 155.659C902.605 155.023 903.304 154.341 904.582 154.341C905.815 154.341 906.423 154.994 906.423 156.114V156.159C906.423 156.807 905.764 156.75 904.173 156.955C902.554 157.165 900.787 157.523 900.787 159.523C900.787 161.227 902.105 162.205 903.764 162.205ZM903.969 161C902.901 161 902.128 160.523 902.128 159.591C902.128 158.568 903.06 158.25 904.105 158.114C904.673 158.045 906.196 157.886 906.423 157.614V158.841C906.423 159.932 905.56 161 903.969 161ZM914.007 153.273H912.143V151.182H910.803V153.273H909.484V154.409H910.803V159.864C910.803 161.386 912.03 162.114 913.166 162.114C913.666 162.114 913.984 162.023 914.166 161.955L913.893 160.75C913.78 160.773 913.598 160.818 913.303 160.818C912.712 160.818 912.143 160.636 912.143 159.5V154.409H914.007V153.273ZM916.024 162H917.365V153.273H916.024V162ZM916.706 151.818C917.229 151.818 917.661 151.409 917.661 150.909C917.661 150.409 917.229 150 916.706 150C916.183 150 915.751 150.409 915.751 150.909C915.751 151.409 916.183 151.818 916.706 151.818ZM923.366 162.182C925.73 162.182 927.321 160.386 927.321 157.682C927.321 154.955 925.73 153.159 923.366 153.159C921.003 153.159 919.412 154.955 919.412 157.682C919.412 160.386 921.003 162.182 923.366 162.182ZM923.366 160.977C921.571 160.977 920.753 159.432 920.753 157.682C920.753 155.932 921.571 154.364 923.366 154.364C925.162 154.364 925.98 155.932 925.98 157.682C925.98 159.432 925.162 160.977 923.366 160.977ZM930.709 156.75C930.709 155.227 931.652 154.364 932.936 154.364C934.18 154.364 934.936 155.176 934.936 156.545V162H936.277V156.455C936.277 154.227 935.089 153.159 933.322 153.159C932.004 153.159 931.186 153.75 930.777 154.636H930.663V153.273H929.368V162H930.709V156.75Z" fill="#242424"/>
    <path d="M647.227 156.182C647.227 152.5 645.068 150.205 642.091 150.205C639.114 150.205 636.955 152.5 636.955 156.182C636.955 159.864 639.114 162.159 642.091 162.159C645.068 162.159 647.227 159.864 647.227 156.182ZM645.864 156.182C645.864 159.205 644.205 160.841 642.091 160.841C639.977 160.841 638.318 159.205 638.318 156.182C638.318 153.159 639.977 151.523 642.091 151.523C644.205 151.523 645.864 153.159 645.864 156.182ZM649.415 162H650.756V156.477C650.756 155.295 651.688 154.432 652.96 154.432C653.318 154.432 653.688 154.5 653.778 154.523V153.159C653.625 153.148 653.273 153.136 653.074 153.136C652.028 153.136 651.119 153.727 650.801 154.591H650.71V153.273H649.415V162ZM658.398 162.182C660.08 162.182 660.648 161.136 660.943 160.659H661.102V162H662.398V150.364H661.057V154.659H660.943C660.648 154.205 660.125 153.159 658.42 153.159C656.216 153.159 654.693 154.909 654.693 157.659C654.693 160.432 656.216 162.182 658.398 162.182ZM658.58 160.977C656.898 160.977 656.034 159.5 656.034 157.636C656.034 155.795 656.875 154.364 658.58 154.364C660.216 154.364 661.08 155.682 661.08 157.636C661.08 159.614 660.193 160.977 658.58 160.977ZM668.699 162.182C670.472 162.182 671.767 161.295 672.176 159.977L670.881 159.614C670.54 160.523 669.75 160.977 668.699 160.977C667.125 160.977 666.04 159.96 665.977 158.091H672.312V157.523C672.312 154.273 670.381 153.159 668.562 153.159C666.199 153.159 664.631 155.023 664.631 157.705C664.631 160.386 666.176 162.182 668.699 162.182ZM665.977 156.932C666.068 155.574 667.028 154.364 668.562 154.364C670.017 154.364 670.949 155.455 670.949 156.932H665.977ZM674.352 162H675.693V156.477C675.693 155.295 676.625 154.432 677.898 154.432C678.256 154.432 678.625 154.5 678.716 154.523V153.159C678.562 153.148 678.21 153.136 678.011 153.136C676.966 153.136 676.057 153.727 675.739 154.591H675.648V153.273H674.352V162ZM684.987 162H686.396V157.455H688.942C689.044 157.455 689.141 157.455 689.237 157.449L691.692 162H693.328L690.697 157.193C692.18 156.688 692.874 155.477 692.874 153.932C692.874 151.875 691.646 150.364 688.919 150.364H684.987V162ZM686.396 156.182V151.614H688.874C690.76 151.614 691.487 152.534 691.487 153.932C691.487 155.33 690.76 156.182 688.896 156.182H686.396ZM698.605 162.182C700.378 162.182 701.673 161.295 702.082 159.977L700.787 159.614C700.446 160.523 699.656 160.977 698.605 160.977C697.031 160.977 695.946 159.96 695.884 158.091H702.219V157.523C702.219 154.273 700.287 153.159 698.469 153.159C696.105 153.159 694.537 155.023 694.537 157.705C694.537 160.386 696.082 162.182 698.605 162.182ZM695.884 156.932C695.974 155.574 696.935 154.364 698.469 154.364C699.923 154.364 700.855 155.455 700.855 156.932H695.884ZM707.804 162.182C709.736 162.182 711.009 161 711.236 159.455H709.895C709.645 160.409 708.849 160.977 707.804 160.977C706.213 160.977 705.19 159.659 705.19 157.636C705.19 155.659 706.236 154.364 707.804 154.364C708.986 154.364 709.69 155.091 709.895 155.886H711.236C711.009 154.25 709.622 153.159 707.781 153.159C705.418 153.159 703.849 155.023 703.849 157.682C703.849 160.295 705.349 162.182 707.804 162.182ZM713.196 162H714.537V153.273H713.196V162ZM713.878 151.818C714.401 151.818 714.832 151.409 714.832 150.909C714.832 150.409 714.401 150 713.878 150C713.355 150 712.923 150.409 712.923 150.909C712.923 151.409 713.355 151.818 713.878 151.818ZM720.652 162.182C722.425 162.182 723.72 161.295 724.129 159.977L722.834 159.614C722.493 160.523 721.703 160.977 720.652 160.977C719.078 160.977 717.993 159.96 717.93 158.091H724.266V157.523C724.266 154.273 722.334 153.159 720.516 153.159C718.152 153.159 716.584 155.023 716.584 157.705C716.584 160.386 718.129 162.182 720.652 162.182ZM717.93 156.932C718.021 155.574 718.982 154.364 720.516 154.364C721.97 154.364 722.902 155.455 722.902 156.932H717.93ZM726.305 165.273H727.646V160.659H727.76C728.055 161.136 728.624 162.182 730.305 162.182C732.487 162.182 734.01 160.432 734.01 157.659C734.01 154.909 732.487 153.159 730.283 153.159C728.578 153.159 728.055 154.205 727.76 154.659H727.601V153.273H726.305V165.273ZM727.624 157.636C727.624 155.682 728.487 154.364 730.124 154.364C731.828 154.364 732.669 155.795 732.669 157.636C732.669 159.5 731.805 160.977 730.124 160.977C728.51 160.977 727.624 159.614 727.624 157.636ZM739.851 153.273H737.987V151.182H736.646V153.273H735.328V154.409H736.646V159.864C736.646 161.386 737.874 162.114 739.01 162.114C739.51 162.114 739.828 162.023 740.01 161.955L739.737 160.75C739.624 160.773 739.442 160.818 739.146 160.818C738.555 160.818 737.987 160.636 737.987 159.5V154.409H739.851V153.273Z" fill="#242424"/>
    <path d="M465.773 153.273H467.136C467.074 151.517 465.455 150.205 463.205 150.205C460.977 150.205 459.227 151.5 459.227 153.455C459.227 155.023 460.364 155.955 462.182 156.477L463.614 156.886C464.841 157.227 465.932 157.659 465.932 158.818C465.932 160.091 464.705 160.932 463.091 160.932C461.705 160.932 460.477 160.318 460.364 159H458.909C459.045 160.909 460.591 162.205 463.091 162.205C465.773 162.205 467.295 160.727 467.295 158.841C467.295 156.659 465.227 155.955 464.023 155.636L462.841 155.318C461.977 155.091 460.591 154.636 460.591 153.386C460.591 152.273 461.614 151.455 463.159 151.455C464.568 151.455 465.636 152.125 465.773 153.273ZM470.771 156.75C470.771 155.227 471.743 154.364 473.067 154.364C474.328 154.364 475.089 155.159 475.089 156.545V162H476.43V156.455C476.43 154.21 475.237 153.159 473.453 153.159C472.078 153.159 471.294 153.733 470.885 154.636H470.771V150.364H469.43V162H470.771V156.75ZM478.884 162H480.224V153.273H478.884V162ZM479.565 151.818C480.088 151.818 480.52 151.409 480.52 150.909C480.52 150.409 480.088 150 479.565 150C479.043 150 478.611 150.409 478.611 150.909C478.611 151.409 479.043 151.818 479.565 151.818ZM482.68 165.273H484.021V160.659H484.135C484.43 161.136 484.999 162.182 486.68 162.182C488.862 162.182 490.385 160.432 490.385 157.659C490.385 154.909 488.862 153.159 486.658 153.159C484.953 153.159 484.43 154.205 484.135 154.659H483.976V153.273H482.68V165.273ZM483.999 157.636C483.999 155.682 484.862 154.364 486.499 154.364C488.203 154.364 489.044 155.795 489.044 157.636C489.044 159.5 488.18 160.977 486.499 160.977C484.885 160.977 483.999 159.614 483.999 157.636ZM492.43 165.273H493.771V160.659H493.885C494.18 161.136 494.749 162.182 496.43 162.182C498.612 162.182 500.135 160.432 500.135 157.659C500.135 154.909 498.612 153.159 496.408 153.159C494.703 153.159 494.18 154.205 493.885 154.659H493.726V153.273H492.43V165.273ZM493.749 157.636C493.749 155.682 494.612 154.364 496.249 154.364C497.953 154.364 498.794 155.795 498.794 157.636C498.794 159.5 497.93 160.977 496.249 160.977C494.635 160.977 493.749 159.614 493.749 157.636ZM502.18 162H503.521V153.273H502.18V162ZM502.862 151.818C503.385 151.818 503.817 151.409 503.817 150.909C503.817 150.409 503.385 150 502.862 150C502.339 150 501.908 150.409 501.908 150.909C501.908 151.409 502.339 151.818 502.862 151.818ZM507.318 156.75C507.318 155.227 508.261 154.364 509.545 154.364C510.79 154.364 511.545 155.176 511.545 156.545V162H512.886V156.455C512.886 154.227 511.699 153.159 509.932 153.159C508.614 153.159 507.795 153.75 507.386 154.636H507.273V153.273H505.977V162H507.318V156.75ZM518.859 165.455C520.95 165.455 522.632 164.5 522.632 162.25V153.273H521.337V154.659H521.2C520.905 154.205 520.359 153.159 518.655 153.159C516.45 153.159 514.928 154.909 514.928 157.591C514.928 160.318 516.518 161.864 518.632 161.864C520.337 161.864 520.882 160.864 521.178 160.386H521.291V162.159C521.291 163.614 520.268 164.273 518.859 164.273C517.274 164.273 516.717 163.438 516.359 162.955L515.291 163.705C515.837 164.619 516.911 165.455 518.859 165.455ZM518.814 160.659C517.132 160.659 516.268 159.386 516.268 157.568C516.268 155.795 517.109 154.364 518.814 154.364C520.45 154.364 521.314 155.682 521.314 157.568C521.314 159.5 520.428 160.659 518.814 160.659Z" fill="#242424"/>
    <path d="M237.409 162H238.818V157.455H241.364C241.466 157.455 241.562 157.455 241.659 157.449L244.114 162H245.75L243.119 157.193C244.602 156.688 245.295 155.477 245.295 153.932C245.295 151.875 244.068 150.364 241.341 150.364H237.409V162ZM238.818 156.182V151.614H241.295C243.182 151.614 243.909 152.534 243.909 153.932C243.909 155.33 243.182 156.182 241.318 156.182H238.818ZM251.027 162.182C252.8 162.182 254.095 161.295 254.504 159.977L253.209 159.614C252.868 160.523 252.078 160.977 251.027 160.977C249.453 160.977 248.368 159.96 248.305 158.091H254.641V157.523C254.641 154.273 252.709 153.159 250.891 153.159C248.527 153.159 246.959 155.023 246.959 157.705C246.959 160.386 248.504 162.182 251.027 162.182ZM248.305 156.932C248.396 155.574 249.357 154.364 250.891 154.364C252.345 154.364 253.277 155.455 253.277 156.932H248.305ZM260.226 162.182C262.158 162.182 263.43 161 263.658 159.455H262.317C262.067 160.409 261.271 160.977 260.226 160.977C258.635 160.977 257.612 159.659 257.612 157.636C257.612 155.659 258.658 154.364 260.226 154.364C261.408 154.364 262.112 155.091 262.317 155.886H263.658C263.43 154.25 262.044 153.159 260.203 153.159C257.839 153.159 256.271 155.023 256.271 157.682C256.271 160.295 257.771 162.182 260.226 162.182ZM265.618 162H266.959V153.273H265.618V162ZM266.3 151.818C266.822 151.818 267.254 151.409 267.254 150.909C267.254 150.409 266.822 150 266.3 150C265.777 150 265.345 150.409 265.345 150.909C265.345 151.409 265.777 151.818 266.3 151.818ZM273.074 162.182C274.847 162.182 276.142 161.295 276.551 159.977L275.256 159.614C274.915 160.523 274.125 160.977 273.074 160.977C271.5 160.977 270.415 159.96 270.352 158.091H276.688V157.523C276.688 154.273 274.756 153.159 272.938 153.159C270.574 153.159 269.006 155.023 269.006 157.705C269.006 160.386 270.551 162.182 273.074 162.182ZM270.352 156.932C270.443 155.574 271.403 154.364 272.938 154.364C274.392 154.364 275.324 155.455 275.324 156.932H270.352ZM285.598 153.273H284.143L281.734 160.227H281.643L279.234 153.273H277.78L281.007 162H282.371L285.598 153.273ZM290.714 162.182C292.487 162.182 293.783 161.295 294.192 159.977L292.896 159.614C292.555 160.523 291.766 160.977 290.714 160.977C289.141 160.977 288.055 159.96 287.993 158.091H294.328V157.523C294.328 154.273 292.396 153.159 290.578 153.159C288.214 153.159 286.646 155.023 286.646 157.705C286.646 160.386 288.192 162.182 290.714 162.182ZM287.993 156.932C288.084 155.574 289.044 154.364 290.578 154.364C292.033 154.364 292.964 155.455 292.964 156.932H287.993ZM304.413 162.182C306.777 162.182 308.368 160.386 308.368 157.682C308.368 154.955 306.777 153.159 304.413 153.159C302.05 153.159 300.459 154.955 300.459 157.682C300.459 160.386 302.05 162.182 304.413 162.182ZM304.413 160.977C302.618 160.977 301.8 159.432 301.8 157.682C301.8 155.932 302.618 154.364 304.413 154.364C306.209 154.364 307.027 155.932 307.027 157.682C307.027 159.432 306.209 160.977 304.413 160.977ZM310.415 162H311.756V156.477C311.756 155.295 312.688 154.432 313.96 154.432C314.318 154.432 314.688 154.5 314.778 154.523V153.159C314.625 153.148 314.273 153.136 314.074 153.136C313.028 153.136 312.119 153.727 311.801 154.591H311.71V153.273H310.415V162ZM319.398 162.182C321.08 162.182 321.648 161.136 321.943 160.659H322.102V162H323.398V150.364H322.057V154.659H321.943C321.648 154.205 321.125 153.159 319.42 153.159C317.216 153.159 315.693 154.909 315.693 157.659C315.693 160.432 317.216 162.182 319.398 162.182ZM319.58 160.977C317.898 160.977 317.034 159.5 317.034 157.636C317.034 155.795 317.875 154.364 319.58 154.364C321.216 154.364 322.08 155.682 322.08 157.636C322.08 159.614 321.193 160.977 319.58 160.977ZM329.699 162.182C331.472 162.182 332.767 161.295 333.176 159.977L331.881 159.614C331.54 160.523 330.75 160.977 329.699 160.977C328.125 160.977 327.04 159.96 326.977 158.091H333.312V157.523C333.312 154.273 331.381 153.159 329.562 153.159C327.199 153.159 325.631 155.023 325.631 157.705C325.631 160.386 327.176 162.182 329.699 162.182ZM326.977 156.932C327.068 155.574 328.028 154.364 329.562 154.364C331.017 154.364 331.949 155.455 331.949 156.932H326.977ZM335.352 162H336.693V156.477C336.693 155.295 337.625 154.432 338.898 154.432C339.256 154.432 339.625 154.5 339.716 154.523V153.159C339.562 153.148 339.21 153.136 339.011 153.136C337.966 153.136 337.057 153.727 336.739 154.591H336.648V153.273H335.352V162Z" fill="#242424"/>
    <path d="M54.4091 162H55.8182V156.795H60.8636V155.545H55.8182V151.614H61.3864V150.364H54.4091V162ZM66.6364 162.182C68.4091 162.182 69.7045 161.295 70.1136 159.977L68.8182 159.614C68.4773 160.523 67.6875 160.977 66.6364 160.977C65.0625 160.977 63.9773 159.96 63.9148 158.091H70.25V157.523C70.25 154.273 68.3182 153.159 66.5 153.159C64.1364 153.159 62.5682 155.023 62.5682 157.705C62.5682 160.386 64.1136 162.182 66.6364 162.182ZM63.9148 156.932C64.0057 155.574 64.9659 154.364 66.5 154.364C67.9545 154.364 68.8864 155.455 68.8864 156.932H63.9148ZM75.9489 162.182C77.7216 162.182 79.017 161.295 79.4261 159.977L78.1307 159.614C77.7898 160.523 77 160.977 75.9489 160.977C74.375 160.977 73.2898 159.96 73.2273 158.091H79.5625V157.523C79.5625 154.273 77.6307 153.159 75.8125 153.159C73.4489 153.159 71.8807 155.023 71.8807 157.705C71.8807 160.386 73.4261 162.182 75.9489 162.182ZM73.2273 156.932C73.3182 155.574 74.2784 154.364 75.8125 154.364C77.267 154.364 78.1989 155.455 78.1989 156.932H73.2273ZM84.8977 162.182C86.5795 162.182 87.1477 161.136 87.4432 160.659H87.6023V162H88.8977V150.364H87.5568V154.659H87.4432C87.1477 154.205 86.625 153.159 84.9205 153.159C82.7159 153.159 81.1932 154.909 81.1932 157.659C81.1932 160.432 82.7159 162.182 84.8977 162.182ZM85.0795 160.977C83.3977 160.977 82.5341 159.5 82.5341 157.636C82.5341 155.795 83.375 154.364 85.0795 154.364C86.7159 154.364 87.5795 155.682 87.5795 157.636C87.5795 159.614 86.6932 160.977 85.0795 160.977ZM91.7216 162H93.017V160.659H93.1761C93.4716 161.136 94.0398 162.182 95.7216 162.182C97.9034 162.182 99.4261 160.432 99.4261 157.659C99.4261 154.909 97.9034 153.159 95.6989 153.159C93.9943 153.159 93.4716 154.205 93.1761 154.659H93.0625V150.364H91.7216V162ZM93.0398 157.636C93.0398 155.682 93.9034 154.364 95.5398 154.364C97.2443 154.364 98.0852 155.795 98.0852 157.636C98.0852 159.5 97.2216 160.977 95.5398 160.977C93.9261 160.977 93.0398 159.614 93.0398 157.636ZM104.045 162.205C105.568 162.205 106.364 161.386 106.636 160.818H106.705V162H108.045V156.25C108.045 153.477 105.932 153.159 104.818 153.159C103.5 153.159 102 153.614 101.318 155.205L102.591 155.659C102.886 155.023 103.585 154.341 104.864 154.341C106.097 154.341 106.705 154.994 106.705 156.114V156.159C106.705 156.807 106.045 156.75 104.455 156.955C102.835 157.165 101.068 157.523 101.068 159.523C101.068 161.227 102.386 162.205 104.045 162.205ZM104.25 161C103.182 161 102.409 160.523 102.409 159.591C102.409 158.568 103.341 158.25 104.386 158.114C104.955 158.045 106.477 157.886 106.705 157.614V158.841C106.705 159.932 105.841 161 104.25 161ZM114.038 162.182C115.97 162.182 117.243 161 117.47 159.455H116.129C115.879 160.409 115.084 160.977 114.038 160.977C112.447 160.977 111.425 159.659 111.425 157.636C111.425 155.659 112.47 154.364 114.038 154.364C115.22 154.364 115.925 155.091 116.129 155.886H117.47C117.243 154.25 115.857 153.159 114.016 153.159C111.652 153.159 110.084 155.023 110.084 157.682C110.084 160.295 111.584 162.182 114.038 162.182ZM119.43 162H120.771V158.733L121.709 157.864L124.976 162H126.68L122.72 157L126.408 153.273H124.749L120.93 157.159H120.771V150.364H119.43V162Z" fill="#242424"/>
    <g filter="url(#filter10_d)">
        <rect x="4" y="3" width="180" height="50" fill="white"/>
    </g>
    <g filter="url(#filter11_d)">
        <rect x="204" y="3" width="180" height="50" fill="white"/>
    </g>
    <path d="M47.4091 32H48.8182V26.7955H55.0227V32H56.4318V20.3636H55.0227V25.5455H48.8182V20.3636H47.4091V32ZM62.6165 32.1818C64.9801 32.1818 66.571 30.3864 66.571 27.6818C66.571 24.9545 64.9801 23.1591 62.6165 23.1591C60.2528 23.1591 58.6619 24.9545 58.6619 27.6818C58.6619 30.3864 60.2528 32.1818 62.6165 32.1818ZM62.6165 30.9773C60.821 30.9773 60.0028 29.4318 60.0028 27.6818C60.0028 25.9318 60.821 24.3636 62.6165 24.3636C64.4119 24.3636 65.2301 25.9318 65.2301 27.6818C65.2301 29.4318 64.4119 30.9773 62.6165 30.9773ZM68.6179 32H69.9588V26.5455C69.9588 25.267 70.8906 24.3636 71.9361 24.3636C72.9531 24.3636 73.6634 25.0284 73.6634 26.0227V32H75.027V26.3182C75.027 25.1932 75.7315 24.3636 76.9588 24.3636C77.9134 24.3636 78.7315 24.8693 78.7315 26.1591V32H80.0724V26.1591C80.0724 24.108 78.9702 23.1591 77.4134 23.1591C76.1634 23.1591 75.2486 23.733 74.7997 24.6364H74.7088C74.277 23.7045 73.5156 23.1591 72.3679 23.1591C71.2315 23.1591 70.3906 23.7045 70.027 24.6364H69.9134V23.2727H68.6179V32ZM86.1832 32.1818C87.956 32.1818 89.2514 31.2955 89.6605 29.9773L88.3651 29.6136C88.0241 30.5227 87.2344 30.9773 86.1832 30.9773C84.6094 30.9773 83.5241 29.9602 83.4616 28.0909H89.7969V27.5227C89.7969 24.2727 87.8651 23.1591 86.0469 23.1591C83.6832 23.1591 82.1151 25.0227 82.1151 27.7045C82.1151 30.3864 83.6605 32.1818 86.1832 32.1818ZM83.4616 26.9318C83.5526 25.5739 84.5128 24.3636 86.0469 24.3636C87.5014 24.3636 88.4332 25.4545 88.4332 26.9318H83.4616ZM96.3366 35.2727H97.6776V30.6591H97.7912C98.0866 31.1364 98.6548 32.1818 100.337 32.1818C102.518 32.1818 104.041 30.4318 104.041 27.6591C104.041 24.9091 102.518 23.1591 100.314 23.1591C98.6094 23.1591 98.0866 24.2045 97.7912 24.6591H97.6321V23.2727H96.3366V35.2727ZM97.6548 27.6364C97.6548 25.6818 98.5185 24.3636 100.155 24.3636C101.859 24.3636 102.7 25.7955 102.7 27.6364C102.7 29.5 101.837 30.9773 100.155 30.9773C98.5412 30.9773 97.6548 29.6136 97.6548 27.6364ZM108.655 32.2045C110.178 32.2045 110.973 31.3864 111.246 30.8182H111.314V32H112.655V26.25C112.655 23.4773 110.541 23.1591 109.428 23.1591C108.109 23.1591 106.609 23.6136 105.928 25.2045L107.2 25.6591C107.496 25.0227 108.195 24.3409 109.473 24.3409C110.706 24.3409 111.314 24.9943 111.314 26.1136V26.1591C111.314 26.8068 110.655 26.75 109.064 26.9545C107.445 27.1648 105.678 27.5227 105.678 29.5227C105.678 31.2273 106.996 32.2045 108.655 32.2045ZM108.859 31C107.791 31 107.018 30.5227 107.018 29.5909C107.018 28.5682 107.95 28.25 108.996 28.1136C109.564 28.0455 111.087 27.8864 111.314 27.6136V28.8409C111.314 29.9318 110.45 31 108.859 31ZM118.625 35.4545C120.716 35.4545 122.398 34.5 122.398 32.25V23.2727H121.102V24.6591H120.966C120.67 24.2045 120.125 23.1591 118.42 23.1591C116.216 23.1591 114.693 24.9091 114.693 27.5909C114.693 30.3182 116.284 31.8636 118.398 31.8636C120.102 31.8636 120.648 30.8636 120.943 30.3864H121.057V32.1591C121.057 33.6136 120.034 34.2727 118.625 34.2727C117.04 34.2727 116.483 33.4375 116.125 32.9545L115.057 33.7045C115.602 34.6193 116.676 35.4545 118.625 35.4545ZM118.58 30.6591C116.898 30.6591 116.034 29.3864 116.034 27.5682C116.034 25.7955 116.875 24.3636 118.58 24.3636C120.216 24.3636 121.08 25.6818 121.08 27.5682C121.08 29.5 120.193 30.6591 118.58 30.6591ZM128.511 32.1818C130.284 32.1818 131.58 31.2955 131.989 29.9773L130.693 29.6136C130.352 30.5227 129.562 30.9773 128.511 30.9773C126.938 30.9773 125.852 29.9602 125.79 28.0909H132.125V27.5227C132.125 24.2727 130.193 23.1591 128.375 23.1591C126.011 23.1591 124.443 25.0227 124.443 27.7045C124.443 30.3864 125.989 32.1818 128.511 32.1818ZM125.79 26.9318C125.881 25.5739 126.841 24.3636 128.375 24.3636C129.83 24.3636 130.761 25.4545 130.761 26.9318H125.79Z" fill="#242424"/>
    <path d="M264.409 32H268.614C271.364 32 272.5 30.6591 272.5 28.9091C272.5 27.0682 271.227 26.0682 270.159 26V25.8864C271.159 25.6136 272.045 24.9545 272.045 23.4545C272.045 21.75 270.909 20.3636 268.477 20.3636H264.409V32ZM265.818 30.75V26.7045H268.682C270.205 26.7045 271.159 27.7273 271.159 28.9091C271.159 29.9318 270.455 30.75 268.614 30.75H265.818ZM265.818 25.4773V21.6136H268.477C270.023 21.6136 270.705 22.4318 270.705 23.4545C270.705 24.6818 269.705 25.4773 268.432 25.4773H265.818ZM274.634 32H275.974V26.4773C275.974 25.2955 276.906 24.4318 278.179 24.4318C278.537 24.4318 278.906 24.5 278.997 24.5227V23.1591C278.844 23.1477 278.491 23.1364 278.293 23.1364C277.247 23.1364 276.338 23.7273 276.02 24.5909H275.929V23.2727H274.634V32ZM283.866 32.1818C286.23 32.1818 287.821 30.3864 287.821 27.6818C287.821 24.9545 286.23 23.1591 283.866 23.1591C281.503 23.1591 279.912 24.9545 279.912 27.6818C279.912 30.3864 281.503 32.1818 283.866 32.1818ZM283.866 30.9773C282.071 30.9773 281.253 29.4318 281.253 27.6818C281.253 25.9318 282.071 24.3636 283.866 24.3636C285.662 24.3636 286.48 25.9318 286.48 27.6818C286.48 29.4318 285.662 30.9773 283.866 30.9773ZM291.548 32H292.866L294.776 25.2955H294.912L296.821 32H298.139L300.798 23.2727H299.389L297.503 29.9318H297.412L295.571 23.2727H294.139L292.276 29.9545H292.185L290.298 23.2727H288.889L291.548 32ZM308.753 25.2273C308.332 23.9886 307.389 23.1591 305.662 23.1591C303.821 23.1591 302.457 24.2045 302.457 25.6818C302.457 26.8864 303.173 27.6932 304.776 28.0682L306.23 28.4091C307.111 28.6136 307.526 29.0341 307.526 29.6364C307.526 30.3864 306.73 31 305.48 31C304.384 31 303.696 30.5284 303.457 29.5909L302.185 29.9091C302.497 31.392 303.719 32.1818 305.503 32.1818C307.531 32.1818 308.912 31.0739 308.912 29.5682C308.912 28.3523 308.151 27.5852 306.594 27.2045L305.298 26.8864C304.264 26.6307 303.798 26.2841 303.798 25.6136C303.798 24.8636 304.594 24.3182 305.662 24.3182C306.832 24.3182 307.315 24.9659 307.548 25.5682L308.753 25.2273ZM314.589 32.1818C316.362 32.1818 317.658 31.2955 318.067 29.9773L316.771 29.6136C316.43 30.5227 315.641 30.9773 314.589 30.9773C313.016 30.9773 311.93 29.9602 311.868 28.0909H318.203V27.5227C318.203 24.2727 316.271 23.1591 314.453 23.1591C312.089 23.1591 310.521 25.0227 310.521 27.7045C310.521 30.3864 312.067 32.1818 314.589 32.1818ZM311.868 26.9318C311.959 25.5739 312.919 24.3636 314.453 24.3636C315.908 24.3636 316.839 25.4545 316.839 26.9318H311.868Z" fill="#242424"/>
    <path d="M467.409 32H474.227V30.75H468.818V20.3636H467.409V32ZM476.227 32H477.568V23.2727H476.227V32ZM476.909 21.8182C477.432 21.8182 477.864 21.4091 477.864 20.9091C477.864 20.4091 477.432 20 476.909 20C476.386 20 475.955 20.4091 475.955 20.9091C475.955 21.4091 476.386 21.8182 476.909 21.8182ZM486.206 25.2273C485.786 23.9886 484.842 23.1591 483.115 23.1591C481.274 23.1591 479.911 24.2045 479.911 25.6818C479.911 26.8864 480.626 27.6932 482.229 28.0682L483.683 28.4091C484.564 28.6136 484.979 29.0341 484.979 29.6364C484.979 30.3864 484.183 31 482.933 31C481.837 31 481.149 30.5284 480.911 29.5909L479.638 29.9091C479.95 31.392 481.172 32.1818 482.956 32.1818C484.984 32.1818 486.365 31.0739 486.365 29.5682C486.365 28.3523 485.604 27.5852 484.047 27.2045L482.751 26.8864C481.717 26.6307 481.251 26.2841 481.251 25.6136C481.251 24.8636 482.047 24.3182 483.115 24.3182C484.286 24.3182 484.768 24.9659 485.001 25.5682L486.206 25.2273ZM492.179 23.2727H490.315V21.1818H488.974V23.2727H487.656V24.4091H488.974V29.8636C488.974 31.3864 490.202 32.1136 491.338 32.1136C491.838 32.1136 492.156 32.0227 492.338 31.9545L492.065 30.75C491.952 30.7727 491.77 30.8182 491.474 30.8182C490.884 30.8182 490.315 30.6364 490.315 29.5V24.4091H492.179V23.2727ZM494.196 32H495.537V23.2727H494.196V32ZM494.878 21.8182C495.401 21.8182 495.832 21.4091 495.832 20.9091C495.832 20.4091 495.401 20 494.878 20C494.355 20 493.923 20.4091 493.923 20.9091C493.923 21.4091 494.355 21.8182 494.878 21.8182ZM499.334 26.75C499.334 25.2273 500.277 24.3636 501.561 24.3636C502.805 24.3636 503.561 25.1761 503.561 26.5455V32H504.902V26.4545C504.902 24.2273 503.714 23.1591 501.947 23.1591C500.629 23.1591 499.811 23.75 499.402 24.6364H499.288V23.2727H497.993V32H499.334V26.75ZM510.875 35.4545C512.966 35.4545 514.648 34.5 514.648 32.25V23.2727H513.352V24.6591H513.216C512.92 24.2045 512.375 23.1591 510.67 23.1591C508.466 23.1591 506.943 24.9091 506.943 27.5909C506.943 30.3182 508.534 31.8636 510.648 31.8636C512.352 31.8636 512.898 30.8636 513.193 30.3864H513.307V32.1591C513.307 33.6136 512.284 34.2727 510.875 34.2727C509.29 34.2727 508.733 33.4375 508.375 32.9545L507.307 33.7045C507.852 34.6193 508.926 35.4545 510.875 35.4545ZM510.83 30.6591C509.148 30.6591 508.284 29.3864 508.284 27.5682C508.284 25.7955 509.125 24.3636 510.83 24.3636C512.466 24.3636 513.33 25.6818 513.33 27.5682C513.33 29.5 512.443 30.6591 510.83 30.6591Z" fill="#242424"/>
    <path d="M651 33C654.545 33 656.545 30.7955 656.545 27.1591C656.545 23.5455 654.545 21.3636 651.159 21.3636H647.409V33H651ZM648.818 31.75V22.6136H651.068C653.795 22.6136 655.182 24.3409 655.182 27.1591C655.182 30 653.795 31.75 650.909 31.75H648.818ZM662.386 33.1818C664.159 33.1818 665.455 32.2955 665.864 30.9773L664.568 30.6136C664.227 31.5227 663.438 31.9773 662.386 31.9773C660.812 31.9773 659.727 30.9602 659.665 29.0909H666V28.5227C666 25.2727 664.068 24.1591 662.25 24.1591C659.886 24.1591 658.318 26.0227 658.318 28.7045C658.318 31.3864 659.864 33.1818 662.386 33.1818ZM659.665 27.9318C659.756 26.5739 660.716 25.3636 662.25 25.3636C663.705 25.3636 664.636 26.4545 664.636 27.9318H659.665ZM674.222 26.2273C673.801 24.9886 672.858 24.1591 671.131 24.1591C669.29 24.1591 667.926 25.2045 667.926 26.6818C667.926 27.8864 668.642 28.6932 670.244 29.0682L671.699 29.4091C672.58 29.6136 672.994 30.0341 672.994 30.6364C672.994 31.3864 672.199 32 670.949 32C669.852 32 669.165 31.5284 668.926 30.5909L667.653 30.9091C667.966 32.392 669.188 33.1818 670.972 33.1818C673 33.1818 674.381 32.0739 674.381 30.5682C674.381 29.3523 673.619 28.5852 672.062 28.2045L670.767 27.8864C669.733 27.6307 669.267 27.2841 669.267 26.6136C669.267 25.8636 670.062 25.3182 671.131 25.3182C672.301 25.3182 672.784 25.9659 673.017 26.5682L674.222 26.2273ZM679.945 33.1818C681.876 33.1818 683.149 32 683.376 30.4545H682.036C681.786 31.4091 680.99 31.9773 679.945 31.9773C678.354 31.9773 677.331 30.6591 677.331 28.6364C677.331 26.6591 678.376 25.3636 679.945 25.3636C681.126 25.3636 681.831 26.0909 682.036 26.8864H683.376C683.149 25.25 681.763 24.1591 679.922 24.1591C677.558 24.1591 675.99 26.0227 675.99 28.6818C675.99 31.2955 677.49 33.1818 679.945 33.1818ZM685.337 33H686.678V27.4773C686.678 26.2955 687.609 25.4318 688.882 25.4318C689.24 25.4318 689.609 25.5 689.7 25.5227V24.1591C689.547 24.1477 689.195 24.1364 688.996 24.1364C687.95 24.1364 687.041 24.7273 686.723 25.5909H686.632V24.2727H685.337V33ZM691.29 33H692.631V24.2727H691.29V33ZM691.972 22.8182C692.494 22.8182 692.926 22.4091 692.926 21.9091C692.926 21.4091 692.494 21 691.972 21C691.449 21 691.017 21.4091 691.017 21.9091C691.017 22.4091 691.449 22.8182 691.972 22.8182ZM695.087 36.2727H696.428V31.6591H696.541C696.837 32.1364 697.405 33.1818 699.087 33.1818C701.268 33.1818 702.791 31.4318 702.791 28.6591C702.791 25.9091 701.268 24.1591 699.064 24.1591C697.359 24.1591 696.837 25.2045 696.541 25.6591H696.382V24.2727H695.087V36.2727ZM696.405 28.6364C696.405 26.6818 697.268 25.3636 698.905 25.3636C700.609 25.3636 701.45 26.7955 701.45 28.6364C701.45 30.5 700.587 31.9773 698.905 31.9773C697.291 31.9773 696.405 30.6136 696.405 28.6364ZM708.632 24.2727H706.768V22.1818H705.428V24.2727H704.109V25.4091H705.428V30.8636C705.428 32.3864 706.655 33.1136 707.791 33.1136C708.291 33.1136 708.609 33.0227 708.791 32.9545L708.518 31.75C708.405 31.7727 708.223 31.8182 707.928 31.8182C707.337 31.8182 706.768 31.6364 706.768 30.5V25.4091H708.632V24.2727ZM710.649 33H711.99V24.2727H710.649V33ZM711.331 22.8182C711.854 22.8182 712.286 22.4091 712.286 21.9091C712.286 21.4091 711.854 21 711.331 21C710.808 21 710.376 21.4091 710.376 21.9091C710.376 22.4091 710.808 22.8182 711.331 22.8182ZM717.991 33.1818C720.355 33.1818 721.946 31.3864 721.946 28.6818C721.946 25.9545 720.355 24.1591 717.991 24.1591C715.628 24.1591 714.037 25.9545 714.037 28.6818C714.037 31.3864 715.628 33.1818 717.991 33.1818ZM717.991 31.9773C716.196 31.9773 715.378 30.4318 715.378 28.6818C715.378 26.9318 716.196 25.3636 717.991 25.3636C719.787 25.3636 720.605 26.9318 720.605 28.6818C720.605 30.4318 719.787 31.9773 717.991 31.9773ZM725.334 27.75C725.334 26.2273 726.277 25.3636 727.561 25.3636C728.805 25.3636 729.561 26.1761 729.561 27.5455V33H730.902V27.4545C730.902 25.2273 729.714 24.1591 727.947 24.1591C726.629 24.1591 725.811 24.75 725.402 25.6364H725.288V24.2727H723.993V33H725.334V27.75Z" fill="#242424"/>
    <path d="M848.886 32L850.057 28.7045H854.761L855.932 32H857.409L853.136 20.3636H851.682L847.409 32H848.886ZM850.5 27.4545L852.364 22.2045H852.455L854.318 27.4545H850.5ZM862.335 32.1818C864.017 32.1818 864.585 31.1364 864.881 30.6591H865.04V32H866.335V20.3636H864.994V24.6591H864.881C864.585 24.2045 864.062 23.1591 862.358 23.1591C860.153 23.1591 858.631 24.9091 858.631 27.6591C858.631 30.4318 860.153 32.1818 862.335 32.1818ZM862.517 30.9773C860.835 30.9773 859.972 29.5 859.972 27.6364C859.972 25.7955 860.812 24.3636 862.517 24.3636C864.153 24.3636 865.017 25.6818 865.017 27.6364C865.017 29.6136 864.131 30.9773 862.517 30.9773ZM872.273 32.1818C873.955 32.1818 874.523 31.1364 874.818 30.6591H874.977V32H876.273V20.3636H874.932V24.6591H874.818C874.523 24.2045 874 23.1591 872.295 23.1591C870.091 23.1591 868.568 24.9091 868.568 27.6591C868.568 30.4318 870.091 32.1818 872.273 32.1818ZM872.455 30.9773C870.773 30.9773 869.909 29.5 869.909 27.6364C869.909 25.7955 870.75 24.3636 872.455 24.3636C874.091 24.3636 874.955 25.6818 874.955 27.6364C874.955 29.6136 874.068 30.9773 872.455 30.9773ZM887.21 23.2727H885.347V21.1818H884.006V23.2727H882.688V24.4091H884.006V29.8636C884.006 31.3864 885.233 32.1136 886.369 32.1136C886.869 32.1136 887.188 32.0227 887.369 31.9545L887.097 30.75C886.983 30.7727 886.801 30.8182 886.506 30.8182C885.915 30.8182 885.347 30.6364 885.347 29.5V24.4091H887.21V23.2727ZM892.679 32.1818C895.043 32.1818 896.634 30.3864 896.634 27.6818C896.634 24.9545 895.043 23.1591 892.679 23.1591C890.315 23.1591 888.724 24.9545 888.724 27.6818C888.724 30.3864 890.315 32.1818 892.679 32.1818ZM892.679 30.9773C890.884 30.9773 890.065 29.4318 890.065 27.6818C890.065 25.9318 890.884 24.3636 892.679 24.3636C894.474 24.3636 895.293 25.9318 895.293 27.6818C895.293 29.4318 894.474 30.9773 892.679 30.9773ZM906.726 32.1818C908.658 32.1818 909.93 31 910.158 29.4545H908.817C908.567 30.4091 907.771 30.9773 906.726 30.9773C905.135 30.9773 904.112 29.6591 904.112 27.6364C904.112 25.6591 905.158 24.3636 906.726 24.3636C907.908 24.3636 908.612 25.0909 908.817 25.8864H910.158C909.93 24.25 908.544 23.1591 906.703 23.1591C904.339 23.1591 902.771 25.0227 902.771 27.6818C902.771 30.2955 904.271 32.1818 906.726 32.1818ZM914.686 32.2045C916.209 32.2045 917.004 31.3864 917.277 30.8182H917.345V32H918.686V26.25C918.686 23.4773 916.572 23.1591 915.459 23.1591C914.141 23.1591 912.641 23.6136 911.959 25.2045L913.232 25.6591C913.527 25.0227 914.226 24.3409 915.504 24.3409C916.737 24.3409 917.345 24.9943 917.345 26.1136V26.1591C917.345 26.8068 916.686 26.75 915.095 26.9545C913.476 27.1648 911.709 27.5227 911.709 29.5227C911.709 31.2273 913.027 32.2045 914.686 32.2045ZM914.891 31C913.822 31 913.05 30.5227 913.05 29.5909C913.05 28.5682 913.982 28.25 915.027 28.1136C915.595 28.0455 917.118 27.8864 917.345 27.6136V28.8409C917.345 29.9318 916.482 31 914.891 31ZM921.134 32H922.474V26.4773C922.474 25.2955 923.406 24.4318 924.679 24.4318C925.037 24.4318 925.406 24.5 925.497 24.5227V23.1591C925.344 23.1477 924.991 23.1364 924.793 23.1364C923.747 23.1364 922.838 23.7273 922.52 24.5909H922.429V23.2727H921.134V32ZM931.429 23.2727H929.565V21.1818H928.224V23.2727H926.906V24.4091H928.224V29.8636C928.224 31.3864 929.452 32.1136 930.588 32.1136C931.088 32.1136 931.406 32.0227 931.588 31.9545L931.315 30.75C931.202 30.7727 931.02 30.8182 930.724 30.8182C930.134 30.8182 929.565 30.6364 929.565 29.5V24.4091H931.429V23.2727Z" fill="#242424"/>
    <path d="M1064.77 24C1064.34 21.6136 1062.43 20.2045 1060.09 20.2045C1057.11 20.2045 1054.95 22.5 1054.95 26.1818C1054.95 29.8636 1057.11 32.1591 1060.09 32.1591C1062.43 32.1591 1064.34 30.75 1064.77 28.3636H1063.36C1063.02 29.9773 1061.64 30.8409 1060.09 30.8409C1057.98 30.8409 1056.32 29.2045 1056.32 26.1818C1056.32 23.1591 1057.98 21.5227 1060.09 21.5227C1061.64 21.5227 1063.02 22.3864 1063.36 24H1064.77ZM1068.21 26.75C1068.21 25.2273 1069.18 24.3636 1070.5 24.3636C1071.77 24.3636 1072.53 25.1591 1072.53 26.5455V32H1073.87V26.4545C1073.87 24.2102 1072.67 23.1591 1070.89 23.1591C1069.52 23.1591 1068.73 23.733 1068.32 24.6364H1068.21V20.3636H1066.87V32H1068.21V26.75ZM1079.98 32.1818C1081.75 32.1818 1083.05 31.2955 1083.46 29.9773L1082.16 29.6136C1081.82 30.5227 1081.03 30.9773 1079.98 30.9773C1078.41 30.9773 1077.32 29.9602 1077.26 28.0909H1083.59V27.5227C1083.59 24.2727 1081.66 23.1591 1079.84 23.1591C1077.48 23.1591 1075.91 25.0227 1075.91 27.7045C1075.91 30.3864 1077.46 32.1818 1079.98 32.1818ZM1077.26 26.9318C1077.35 25.5739 1078.31 24.3636 1079.84 24.3636C1081.3 24.3636 1082.23 25.4545 1082.23 26.9318H1077.26ZM1089.18 32.1818C1091.11 32.1818 1092.38 31 1092.61 29.4545H1091.27C1091.02 30.4091 1090.22 30.9773 1089.18 30.9773C1087.59 30.9773 1086.57 29.6591 1086.57 27.6364C1086.57 25.6591 1087.61 24.3636 1089.18 24.3636C1090.36 24.3636 1091.07 25.0909 1091.27 25.8864H1092.61C1092.38 24.25 1091 23.1591 1089.16 23.1591C1086.79 23.1591 1085.22 25.0227 1085.22 27.6818C1085.22 30.2955 1086.72 32.1818 1089.18 32.1818ZM1094.57 32H1095.91V28.733L1096.85 27.8636L1100.12 32H1101.82L1097.86 27L1101.55 23.2727H1099.89L1096.07 27.1591H1095.91V20.3636H1094.57V32ZM1106.46 32.1818C1108.82 32.1818 1110.41 30.3864 1110.41 27.6818C1110.41 24.9545 1108.82 23.1591 1106.46 23.1591C1104.1 23.1591 1102.51 24.9545 1102.51 27.6818C1102.51 30.3864 1104.1 32.1818 1106.46 32.1818ZM1106.46 30.9773C1104.66 30.9773 1103.85 29.4318 1103.85 27.6818C1103.85 25.9318 1104.66 24.3636 1106.46 24.3636C1108.26 24.3636 1109.07 25.9318 1109.07 27.6818C1109.07 29.4318 1108.26 30.9773 1106.46 30.9773ZM1117.96 28.4318C1117.96 30.0682 1116.71 30.8182 1115.71 30.8182C1114.6 30.8182 1113.8 30 1113.8 28.7273V23.2727H1112.46V28.8182C1112.46 31.0455 1113.64 32.1136 1115.28 32.1136C1116.6 32.1136 1117.46 31.4091 1117.87 30.5227H1117.96V32H1119.3V23.2727H1117.96V28.4318ZM1125.55 23.2727H1123.69V21.1818H1122.35V23.2727H1121.03V24.4091H1122.35V29.8636C1122.35 31.3864 1123.58 32.1136 1124.71 32.1136C1125.21 32.1136 1125.53 32.0227 1125.71 31.9545L1125.44 30.75C1125.33 30.7727 1125.14 30.8182 1124.85 30.8182C1124.26 30.8182 1123.69 30.6364 1123.69 29.5V24.4091H1125.55V23.2727Z" fill="#242424"/>
    <path d="M1058.41 162H1059.82V157.75H1062.36C1065.07 157.75 1066.3 156.102 1066.3 154.045C1066.3 151.989 1065.07 150.364 1062.34 150.364H1058.41V162ZM1059.82 156.5V151.614H1062.3C1064.19 151.614 1064.91 152.648 1064.91 154.045C1064.91 155.443 1064.19 156.5 1062.32 156.5H1059.82ZM1070.95 162.205C1072.47 162.205 1073.27 161.386 1073.54 160.818H1073.61V162H1074.95V156.25C1074.95 153.477 1072.84 153.159 1071.72 153.159C1070.41 153.159 1068.91 153.614 1068.22 155.205L1069.5 155.659C1069.79 155.023 1070.49 154.341 1071.77 154.341C1073 154.341 1073.61 154.994 1073.61 156.114V156.159C1073.61 156.807 1072.95 156.75 1071.36 156.955C1069.74 157.165 1067.97 157.523 1067.97 159.523C1067.97 161.227 1069.29 162.205 1070.95 162.205ZM1071.16 161C1070.09 161 1069.32 160.523 1069.32 159.591C1069.32 158.568 1070.25 158.25 1071.29 158.114C1071.86 158.045 1073.38 157.886 1073.61 157.614V158.841C1073.61 159.932 1072.75 161 1071.16 161ZM1077.95 165.25C1079.16 165.25 1080.02 164.608 1080.52 163.273L1084.23 153.295L1082.77 153.273L1080.36 160.227H1080.27L1077.86 153.273H1076.4L1079.63 162.045L1079.38 162.727C1078.9 164.034 1078.29 164.159 1077.31 163.909L1076.97 165.091C1077.11 165.159 1077.5 165.25 1077.95 165.25ZM1086.01 162H1087.35V156.545C1087.35 155.267 1088.28 154.364 1089.33 154.364C1090.34 154.364 1091.05 155.028 1091.05 156.023V162H1092.42V156.318C1092.42 155.193 1093.12 154.364 1094.35 154.364C1095.3 154.364 1096.12 154.869 1096.12 156.159V162H1097.46V156.159C1097.46 154.108 1096.36 153.159 1094.8 153.159C1093.55 153.159 1092.64 153.733 1092.19 154.636H1092.1C1091.67 153.705 1090.91 153.159 1089.76 153.159C1088.62 153.159 1087.78 153.705 1087.42 154.636H1087.3V153.273H1086.01V162ZM1103.57 162.182C1105.35 162.182 1106.64 161.295 1107.05 159.977L1105.76 159.614C1105.41 160.523 1104.62 160.977 1103.57 160.977C1102 160.977 1100.91 159.96 1100.85 158.091H1107.19V157.523C1107.19 154.273 1105.26 153.159 1103.44 153.159C1101.07 153.159 1099.51 155.023 1099.51 157.705C1099.51 160.386 1101.05 162.182 1103.57 162.182ZM1100.85 156.932C1100.94 155.574 1101.9 154.364 1103.44 154.364C1104.89 154.364 1105.82 155.455 1105.82 156.932H1100.85ZM1110.57 156.75C1110.57 155.227 1111.51 154.364 1112.8 154.364C1114.04 154.364 1114.8 155.176 1114.8 156.545V162H1116.14V156.455C1116.14 154.227 1114.95 153.159 1113.18 153.159C1111.86 153.159 1111.05 153.75 1110.64 154.636H1110.52V153.273H1109.23V162H1110.57V156.75ZM1122.38 153.273H1120.52V151.182H1119.18V153.273H1117.86V154.409H1119.18V159.864C1119.18 161.386 1120.4 162.114 1121.54 162.114C1122.04 162.114 1122.36 162.023 1122.54 161.955L1122.27 160.75C1122.15 160.773 1121.97 160.818 1121.68 160.818C1121.09 160.818 1120.52 160.636 1120.52 159.5V154.409H1122.38V153.273Z" fill="#242424"/>
    <defs>
        <filter id="filter0_d" x="400" y="0" width="188" height="58" filterUnits="userSpaceOnUse" color-interpolation-filters="sRGB">
            <feFlood flood-opacity="0" result="BackgroundImageFix"/>
            <feColorMatrix in="SourceAlpha" type="matrix" values="0 0 0 0 0 0 0 0 0 0 0 0 0 0 0 0 0 0 127 0"/>
            <feOffset dy="1"/>
            <feGaussianBlur stdDeviation="2"/>
            <feColorMatrix type="matrix" values="0 0 0 0 0 0 0 0 0 0 0 0 0 0 0 0 0 0 0.25 0"/>
            <feBlend mode="normal" in2="BackgroundImageFix" result="effect1_dropShadow"/>
            <feBlend mode="normal" in="SourceGraphic" in2="effect1_dropShadow" result="shape"/>
        </filter>
        <filter id="filter1_d" x="600" y="0" width="188" height="58" filterUnits="userSpaceOnUse" color-interpolation-filters="sRGB">
            <feFlood flood-opacity="0" result="BackgroundImageFix"/>
            <feColorMatrix in="SourceAlpha" type="matrix" values="0 0 0 0 0 0 0 0 0 0 0 0 0 0 0 0 0 0 127 0"/>
            <feOffset dy="1"/>
            <feGaussianBlur stdDeviation="2"/>
            <feColorMatrix type="matrix" values="0 0 0 0 0 0 0 0 0 0 0 0 0 0 0 0 0 0 0.25 0"/>
            <feBlend mode="normal" in2="BackgroundImageFix" result="effect1_dropShadow"/>
            <feBlend mode="normal" in="SourceGraphic" in2="effect1_dropShadow" result="shape"/>
        </filter>
        <filter id="filter2_d" x="800" y="0" width="188" height="58" filterUnits="userSpaceOnUse" color-interpolation-filters="sRGB">
            <feFlood flood-opacity="0" result="BackgroundImageFix"/>
            <feColorMatrix in="SourceAlpha" type="matrix" values="0 0 0 0 0 0 0 0 0 0 0 0 0 0 0 0 0 0 127 0"/>
            <feOffset dy="1"/>
            <feGaussianBlur stdDeviation="2"/>
            <feColorMatrix type="matrix" values="0 0 0 0 0 0 0 0 0 0 0 0 0 0 0 0 0 0 0.25 0"/>
            <feBlend mode="normal" in2="BackgroundImageFix" result="effect1_dropShadow"/>
            <feBlend mode="normal" in="SourceGraphic" in2="effect1_dropShadow" result="shape"/>
        </filter>
        <filter id="filter3_d" x="800" y="130" width="188" height="58" filterUnits="userSpaceOnUse" color-interpolation-filters="sRGB">
            <feFlood flood-opacity="0" result="BackgroundImageFix"/>
            <feColorMatrix in="SourceAlpha" type="matrix" values="0 0 0 0 0 0 0 0 0 0 0 0 0 0 0 0 0 0 127 0"/>
            <feOffset dy="1"/>
            <feGaussianBlur stdDeviation="2"/>
            <feColorMatrix type="matrix" values="0 0 0 0 0 0 0 0 0 0 0 0 0 0 0 0 0 0 0.25 0"/>
            <feBlend mode="normal" in2="BackgroundImageFix" result="effect1_dropShadow"/>
            <feBlend mode="normal" in="SourceGraphic" in2="effect1_dropShadow" result="shape"/>
        </filter>
        <filter id="filter4_d" x="600" y="130" width="188" height="58" filterUnits="userSpaceOnUse" color-interpolation-filters="sRGB">
            <feFlood flood-opacity="0" result="BackgroundImageFix"/>
            <feColorMatrix in="SourceAlpha" type="matrix" values="0 0 0 0 0 0 0 0 0 0 0 0 0 0 0 0 0 0 127 0"/>
            <feOffset dy="1"/>
            <feGaussianBlur stdDeviation="2"/>
            <feColorMatrix type="matrix" values="0 0 0 0 0 0 0 0 0 0 0 0 0 0 0 0 0 0 0.25 0"/>
            <feBlend mode="normal" in2="BackgroundImageFix" result="effect1_dropShadow"/>
            <feBlend mode="normal" in="SourceGraphic" in2="effect1_dropShadow" result="shape"/>
        </filter>
        <filter id="filter5_d" x="400" y="130" width="188" height="58" filterUnits="userSpaceOnUse" color-interpolation-filters="sRGB">
            <feFlood flood-opacity="0" result="BackgroundImageFix"/>
            <feColorMatrix in="SourceAlpha" type="matrix" values="0 0 0 0 0 0 0 0 0 0 0 0 0 0 0 0 0 0 127 0"/>
            <feOffset dy="1"/>
            <feGaussianBlur stdDeviation="2"/>
            <feColorMatrix type="matrix" values="0 0 0 0 0 0 0 0 0 0 0 0 0 0 0 0 0 0 0.25 0"/>
            <feBlend mode="normal" in2="BackgroundImageFix" result="effect1_dropShadow"/>
            <feBlend mode="normal" in="SourceGraphic" in2="effect1_dropShadow" result="shape"/>
        </filter>
        <filter id="filter6_d" x="200" y="130" width="188" height="58" filterUnits="userSpaceOnUse" color-interpolation-filters="sRGB">
            <feFlood flood-opacity="0" result="BackgroundImageFix"/>
            <feColorMatrix in="SourceAlpha" type="matrix" values="0 0 0 0 0 0 0 0 0 0 0 0 0 0 0 0 0 0 127 0"/>
            <feOffset dy="1"/>
            <feGaussianBlur stdDeviation="2"/>
            <feColorMatrix type="matrix" values="0 0 0 0 0 0 0 0 0 0 0 0 0 0 0 0 0 0 0.25 0"/>
            <feBlend mode="normal" in2="BackgroundImageFix" result="effect1_dropShadow"/>
            <feBlend mode="normal" in="SourceGraphic" in2="effect1_dropShadow" result="shape"/>
        </filter>
        <filter id="filter7_d" x="0" y="130" width="188" height="58" filterUnits="userSpaceOnUse" color-interpolation-filters="sRGB">
            <feFlood flood-opacity="0" result="BackgroundImageFix"/>
            <feColorMatrix in="SourceAlpha" type="matrix" values="0 0 0 0 0 0 0 0 0 0 0 0 0 0 0 0 0 0 127 0"/>
            <feOffset dy="1"/>
            <feGaussianBlur stdDeviation="2"/>
            <feColorMatrix type="matrix" values="0 0 0 0 0 0 0 0 0 0 0 0 0 0 0 0 0 0 0.25 0"/>
            <feBlend mode="normal" in2="BackgroundImageFix" result="effect1_dropShadow"/>
            <feBlend mode="normal" in="SourceGraphic" in2="effect1_dropShadow" result="shape"/>
        </filter>
        <filter id="filter8_d" x="1000" y="0" width="188" height="58" filterUnits="userSpaceOnUse" color-interpolation-filters="sRGB">
            <feFlood flood-opacity="0" result="BackgroundImageFix"/>
            <feColorMatrix in="SourceAlpha" type="matrix" values="0 0 0 0 0 0 0 0 0 0 0 0 0 0 0 0 0 0 127 0"/>
            <feOffset dy="1"/>
            <feGaussianBlur stdDeviation="2"/>
            <feColorMatrix type="matrix" values="0 0 0 0 0 0 0 0 0 0 0 0 0 0 0 0 0 0 0.25 0"/>
            <feBlend mode="normal" in2="BackgroundImageFix" result="effect1_dropShadow"/>
            <feBlend mode="normal" in="SourceGraphic" in2="effect1_dropShadow" result="shape"/>
        </filter>
        <filter id="filter9_d" x="1000" y="130" width="188" height="58" filterUnits="userSpaceOnUse" color-interpolation-filters="sRGB">
            <feFlood flood-opacity="0" result="BackgroundImageFix"/>
            <feColorMatrix in="SourceAlpha" type="matrix" values="0 0 0 0 0 0 0 0 0 0 0 0 0 0 0 0 0 0 127 0"/>
            <feOffset dy="1"/>
            <feGaussianBlur stdDeviation="2"/>
            <feColorMatrix type="matrix" values="0 0 0 0 0 0 0 0 0 0 0 0 0 0 0 0 0 0 0.25 0"/>
            <feBlend mode="normal" in2="BackgroundImageFix" result="effect1_dropShadow"/>
            <feBlend mode="normal" in="SourceGraphic" in2="effect1_dropShadow" result="shape"/>
        </filter>
        <filter id="filter10_d" x="0" y="0" width="188" height="58" filterUnits="userSpaceOnUse" color-interpolation-filters="sRGB">
            <feFlood flood-opacity="0" result="BackgroundImageFix"/>
            <feColorMatrix in="SourceAlpha" type="matrix" values="0 0 0 0 0 0 0 0 0 0 0 0 0 0 0 0 0 0 127 0"/>
            <feOffset dy="1"/>
            <feGaussianBlur stdDeviation="2"/>
            <feColorMatrix type="matrix" values="0 0 0 0 0 0 0 0 0 0 0 0 0 0 0 0 0 0 0.25 0"/>
            <feBlend mode="normal" in2="BackgroundImageFix" result="effect1_dropShadow"/>
            <feBlend mode="normal" in="SourceGraphic" in2="effect1_dropShadow" result="shape"/>
        </filter>
        <filter id="filter11_d" x="200" y="0" width="188" height="58" filterUnits="userSpaceOnUse" color-interpolation-filters="sRGB">
            <feFlood flood-opacity="0" result="BackgroundImageFix"/>
            <feColorMatrix in="SourceAlpha" type="matrix" values="0 0 0 0 0 0 0 0 0 0 0 0 0 0 0 0 0 0 127 0"/>
            <feOffset dy="1"/>
            <feGaussianBlur stdDeviation="2"/>
            <feColorMatrix type="matrix" values="0 0 0 0 0 0 0 0 0 0 0 0 0 0 0 0 0 0 0.25 0"/>
            <feBlend mode="normal" in2="BackgroundImageFix" result="effect1_dropShadow"/>
            <feBlend mode="normal" in="SourceGraphic" in2="effect1_dropShadow" result="shape"/>
        </filter>
    </defs>
</svg>
